<svg height="927" viewBox="0 0 977 927" width="977" xmlns="http://www.w3.org/2000/svg" xmlns:xlink="http://www.w3.org/1999/xlink"><linearGradient id="a" x1="64.012479%" x2="27.816384%" y1="79.557941%" y2="-6.079992%"><stop offset="0" stop-opacity="0"/><stop offset="1" stop-opacity=".4"/></linearGradient><g fill="none" transform="translate(121 23)"><path d="m392.09 163.01 186.31 186.32-514.76 514.76c-23.32 23.32-63.18 6.8-63.18-26.17v-318.46c0-9.82 3.9-19.23 10.84-26.17l330.28-330.28c13.95-13.94 36.56-13.94 50.51 0z" fill="#055799"/><path d="m340.67 163.93-185.4 185.4 514.76 514.76c23.32 23.32 63.18 6.8 63.18-26.17v-318.46c0-9.82-3.9-19.23-10.84-26.17l-329.36-329.36c-14.46-14.46-37.89-14.46-52.34 0z" fill="#07c6f9"/><path d="m366.84 560.89-211.57-211.56 134.13 289z" fill="url(#a)"/><path d="m603.91.38s59.85 179.05-14.77 243.66c0 0 86.5 48.26 108.35 111.08-.01 0 126.09-169.51-93.58-354.74z" fill="#07c6f9"/><path d="m661.55 420.26s51.6-27.58 26.62-72.4-103.41-107.25-116.96-102.05-54.9 28.28-54.9 28.28 111.98 70.1 145.24 146.17z" fill="#055799"/><path d="m129.66.38s-59.85 179.05 14.77 243.66c0 0-86.5 48.26-108.35 111.08 0 0-126.1-169.51 93.58-354.74z" fill="#055799"/><path d="m72.02 420.26s-51.6-27.58-26.62-72.4 103.41-107.25 116.96-102.05 54.9 28.28 54.9 28.28-111.98 70.1-145.24 146.17z" fill="#07c6f9"/></g></svg>