<?xml version="1.0" encoding="iso-8859-1"?>
<!-- Generator: Adobe Illustrator 19.0.0, SVG Export Plug-In . SVG Version: 6.00 Build 0)  -->
<svg version="1.1" id="Layer_1" xmlns="http://www.w3.org/2000/svg" xmlns:xlink="http://www.w3.org/1999/xlink" x="0px" y="0px"
	 viewBox="0 0 512 512" style="enable-background:new 0 0 512 512;" xml:space="preserve">
<g transform="translate(1 1)">
	<g>
		<g>
			<path d="M488.813,242.2h-11.947c-28.16,0-51.2,23.04-51.2,51.2c0,37.547-30.72,68.267-68.267,68.267h-93.867v-25.6h11.947h56.32
				c2.56,0,4.267-0.853,5.973-1.707c29.013-29.867,46.08-69.973,45.227-111.787c0-40.96-16.213-78.507-45.227-105.813
				c-1.707-1.707-3.413-2.56-5.973-2.56h-56.32h-37.547V71.533v-51.2c0-2.56-0.853-5.12-2.56-6.827
				c-17.92-13.653-44.373-13.653-62.293,0c-11.093,8.533-29.013,9.387-40.107,0c-2.56-1.707-6.827-2.56-9.387-0.853
				c-3.413,1.707-5.12,4.267-5.12,7.68v51.2c0,2.56,0.853,5.12,3.413,6.827c8.533,6.827,19.627,10.24,30.72,10.24
				c11.093,0,22.187-3.413,30.72-10.24c10.276-7.905,26.408-9.213,37.547-1.901V114.2h-21.333h-51.2h-38.4
				c-3.413,0-5.973,2.56-7.68,5.973S101.4,127,103.96,129.56c25.6,23.893,39.253,57.173,40.107,93.013
				c0.853,36.693-13.653,72.533-40.107,98.987c-2.56,2.56-2.56,5.973-1.707,9.387c0.853,3.413,4.267,5.12,7.68,5.12h39.253h51.2
				h11.947v25.6H80.067c-7.68,0-14.507-4.267-18.773-11.947c-5.973-11.093-13.653-19.627-13.653-19.627l-2.56-2.56H-1v110.933
				c0,37.547,30.72,68.267,68.267,68.267h324.267c52.053,0,93.867-41.813,93.867-93.867V306.2c0-2.56,1.707-4.267,4.267-4.267
				c11.947,0,21.333-9.387,21.333-21.333v-16.213C511,252.44,500.76,242.2,488.813,242.2z M365.933,222.573
				c0.853,35.84-12.8,70.827-37.547,96.427h-37.165c20.905-27.608,32.759-61.417,32.045-96.427
				c0-34.122-11.261-65.869-31.791-91.307h36.911C352.28,156.013,365.08,187.587,365.933,222.573z M268.653,131.267
				c23.893,24.747,36.693,56.32,37.547,91.307c0.853,35.84-12.8,70.827-37.547,96.427h-5.12h-23.511
				c18.939-25.011,30.438-55.114,31.903-86.587c0.023-0.464,0.046-0.928,0.064-1.392c0.016-0.439,0.03-0.878,0.042-1.318
				c0.082-2.659,0.1-5.321,0.035-7.983c0-33.28-11.093-64.853-31.573-90.453H268.653z M173.08,64.707
				c-10.24,8.533-26.453,9.387-37.547,2.56V34.84c15.36,5.12,34.987,2.56,47.787-7.68c10.24-8.533,26.453-9.387,37.547-2.56v32.427
				C205.507,51.907,185.88,54.467,173.08,64.707z M128.707,319c21.333-27.307,33.28-62.293,32.427-97.28
				c0-33.28-11.093-64.853-31.573-90.453h35.914c24.448,23.759,37.493,56.31,38.326,91.307
				c0.826,35.523-12.744,70.246-37.613,96.427H128.707z M188.44,319c21.333-27.307,33.28-62.293,32.427-97.28
				c0-33.28-11.093-64.853-31.573-90.453h27.38c15.047,14.622,25.778,32.572,31.995,52.377c0.009,0.028,0.018,0.055,0.026,0.083
				c0.308,0.984,0.605,1.974,0.891,2.967c0.016,0.055,0.032,0.109,0.048,0.164c0.278,0.97,0.544,1.945,0.801,2.923
				c0.02,0.075,0.04,0.15,0.06,0.225c0.25,0.957,0.487,1.919,0.717,2.884c0.023,0.096,0.047,0.192,0.07,0.289
				c0.22,0.936,0.428,1.875,0.629,2.817c0.027,0.129,0.057,0.257,0.084,0.386c0.189,0.898,0.366,1.8,0.537,2.703
				c0.034,0.177,0.07,0.353,0.102,0.531c0.156,0.843,0.301,1.691,0.443,2.539c0.04,0.24,0.083,0.478,0.122,0.719
				c0.123,0.764,0.235,1.531,0.346,2.299c0.047,0.328,0.099,0.654,0.144,0.983c0.09,0.657,0.169,1.318,0.251,1.978
				c0.054,0.439,0.113,0.877,0.163,1.317c0.059,0.52,0.108,1.043,0.162,1.565c0.059,0.578,0.123,1.155,0.175,1.735
				c0.032,0.351,0.056,0.704,0.085,1.055c0.062,0.745,0.126,1.489,0.176,2.237c0.008,0.115,0.012,0.23,0.02,0.344
				c0.134,2.05,0.23,4.112,0.281,6.187c0.826,35.523-12.744,70.246-37.613,96.427h-5.054H188.44z M229.4,336.067h17.067v25.6H229.4
				V336.067z M493.933,280.6c0,2.56-1.707,4.267-4.267,4.267c-11.947,0-21.333,9.387-21.333,21.333v106.667
				c0,42.667-34.133,76.8-76.8,76.8H67.267c-28.16,0-51.2-23.04-51.2-51.2V344.6H37.4c2.56,2.56,5.973,7.68,8.533,12.8
				c6.827,13.653,19.627,21.333,34.133,21.333h132.267h51.2H357.4c46.933,0,85.333-38.4,85.333-85.333
				c0-18.773,15.36-34.133,34.133-34.133h11.947c2.56,0,5.12,2.56,5.12,5.12V280.6z"/>
			<path d="M129.56,398.36l-20.958,20.958c-3.921-1.919-8.382-2.717-13.176-2.184c-7.68,0.853-14.507,4.267-19.627,9.387
				c-5.12,5.973-8.533,12.8-9.387,19.627c-0.853,7.68,1.707,14.507,6.827,19.627c5.12,4.267,11.093,6.827,17.067,6.827
				c7.68,0,16.213-3.413,22.187-9.387c5.12-5.973,8.533-12.8,9.387-19.627c0.48-4.322-0.121-8.374-1.65-12.003l21.277-21.277
				c3.413-3.413,3.413-8.533,0-11.947S132.973,394.947,129.56,398.36z M101.4,450.413c-5.12,5.12-11.947,6.827-15.36,3.413
				c-1.707-1.707-1.707-4.267-1.707-5.973c0-2.56,1.707-5.973,4.267-9.387c2.56-2.56,5.973-4.267,9.387-4.267c0,0,0,0,0.853,0
				c1.353,0,2.706,0.007,4.059,0.432c0.307,0.444,0.658,0.872,1.061,1.274c0.385,0.385,0.771,0.72,1.166,1.018
				c0.528,1.407,0.541,2.948,0.541,4.102C105.667,444.44,103.96,447.853,101.4,450.413z"/>
			<path d="M300.227,398.36l-20.958,20.958c-3.921-1.919-8.382-2.717-13.176-2.184c-7.68,0.853-14.507,4.267-19.627,9.387
				c-5.12,5.973-8.533,12.8-9.387,19.627c-0.853,7.68,1.707,14.507,6.827,19.627c5.12,4.267,11.093,6.827,17.067,6.827
				c7.68,0,16.213-3.413,22.187-9.387c5.12-5.973,8.533-12.8,9.387-19.627c0.48-4.322-0.121-8.374-1.65-12.003l21.277-21.277
				c3.413-3.413,3.413-8.533,0-11.947C308.76,394.947,303.64,394.947,300.227,398.36z M272.067,450.413
				c-5.12,5.12-11.947,6.827-15.36,3.413C255,452.12,255,449.56,255,447.853c0-3.413,1.707-6.827,4.267-9.387
				s5.973-4.267,9.387-4.267c0,0,0,0,0.853,0c1.353,0,2.706,0.007,4.059,0.432c0.307,0.444,0.658,0.872,1.061,1.274
				c0.385,0.385,0.771,0.72,1.166,1.018c0.528,1.407,0.541,2.948,0.541,4.102C276.333,444.44,274.627,447.853,272.067,450.413z"/>
			<path d="M385.56,398.36l-20.958,20.958c-3.921-1.919-8.382-2.717-13.176-2.184c-7.68,0.853-14.507,4.267-19.627,9.387
				c-5.12,5.973-8.533,12.8-9.387,19.627c-0.853,7.68,1.707,14.507,6.827,19.627c5.12,4.267,11.093,6.827,17.067,6.827
				c7.68,0,16.213-3.413,22.187-9.387c5.12-5.973,8.533-12.8,9.387-19.627c0.48-4.322-0.121-8.374-1.65-12.003l21.277-21.277
				c3.413-3.413,3.413-8.533,0-11.947C394.093,394.947,388.973,394.947,385.56,398.36z M357.4,450.413
				c-5.12,5.12-11.947,6.827-15.36,3.413c-1.707-1.707-1.707-4.267-1.707-5.973c0-3.413,1.707-6.827,4.267-9.387
				s5.973-4.267,9.387-4.267c0,0,0,0,0.853,0c1.353,0,2.706,0.007,4.059,0.432c0.307,0.444,0.658,0.872,1.061,1.274
				c0.385,0.385,0.771,0.72,1.166,1.018c0.528,1.407,0.541,2.948,0.541,4.102C361.667,444.44,359.96,447.853,357.4,450.413z"/>
			<path d="M214.893,398.36l-20.958,20.958c-3.921-1.919-8.382-2.717-13.176-2.184c-7.68,0.853-14.507,4.267-19.627,9.387
				c-5.12,5.973-8.533,12.8-9.387,19.627c-0.853,7.68,1.707,14.507,6.827,19.627c5.12,4.267,11.093,6.827,17.067,6.827
				c7.68,0,16.213-3.413,22.187-9.387c5.12-5.973,8.533-12.8,9.387-19.627c0.48-4.322-0.121-8.374-1.65-12.003l21.277-21.277
				c3.413-3.413,3.413-8.533,0-11.947S218.307,394.947,214.893,398.36z M186.733,450.413c-5.12,5.12-11.947,6.827-15.36,3.413
				c-1.707-1.707-1.707-4.267-1.707-5.973c0-3.413,1.707-6.827,4.267-9.387s5.973-4.267,9.387-4.267c0,0,0,0,0.853,0
				c1.353,0,2.706,0.007,4.059,0.432c0.307,0.444,0.658,0.872,1.061,1.274c0.385,0.385,0.771,0.72,1.166,1.018
				c0.528,1.407,0.541,2.948,0.541,4.102C191,444.44,189.293,447.853,186.733,450.413z"/>
		</g>
	</g>
</g>
<g>
</g>
<g>
</g>
<g>
</g>
<g>
</g>
<g>
</g>
<g>
</g>
<g>
</g>
<g>
</g>
<g>
</g>
<g>
</g>
<g>
</g>
<g>
</g>
<g>
</g>
<g>
</g>
<g>
</g>
</svg>
